# xmcd
#
# Track frame offsets: 
#        150
#        13310
#        26137
#        39438
#        52082
#        64979
#        78358
#        87791
#        100680
#        113760
#        122603
#        134239
#        145750
#        156936
#
# Disc length: 2183 seconds
#
# Revision: 0
# Processed by: cddbd v1.5.2PL0 Copyright (c) Steve Scherf et al.
# Submitted via: ExactAudioCopy v0.99pb4
#
DISCID=c108850e
DTITLE=Percy mayfield - Speciality Profiles
DYEAR=2006
DGENRE=Blues
TTITLE0=Please Send Me Someone To Love
TTITLE1=Strange Things Happening
TTITLE2=Lost Love (Baby, Please)
TTITLE3=What A Fool I Was
TTITLE4=Cry Baby
TTITLE5=Prayin' For Your Return
TTITLE6=Louisiana
TTITLE7=The Big Question
TTITLE8=The River's Invitation
TTITLE9=Loose Lips
TTITLE10=Sugar Mama-Peachy Papa
TTITLE11=Memory Pain (aka Memory Of Pain)
TTITLE12=Nightless Lover
TTITLE13=Hit The Road, Jack
EXTD=
EXTT0=
EXTT1=
EXTT2=
EXTT3=
EXTT4=
EXTT5=
EXTT6=
EXTT7=
EXTT8=
EXTT9=
EXTT10=
EXTT11=
EXTT12=
EXTT13=
PLAYORDER=
